<svg xmlns="http://www.w3.org/2000/svg" viewBox="0 0 64 64" fill="none">
  <ellipse cx="32" cy="55" rx="22" ry="4.5" fill="#000" opacity="0.08"/>
  <path d="M12 46v9M20 46v9M34 46v9M42 46v9" stroke="#57534e" stroke-width="2.4" stroke-linecap="round"/>
  <path d="M8 34 C10 24 16 18 26 18 C32 18 36 20 39 24 C41 21 45 19 49 21 C52 23 54 28 53 33 C52 37 49 39 45 40" fill="#fafaf9" stroke="#44403c" stroke-width="1.3" stroke-linejoin="round"/>
  <path d="M14 16 C14 8 20 4 28 4 C32 4 36 6 38 10" fill="#fafaf9" stroke="#44403c" stroke-width="1.3" stroke-linejoin="round"/>
  <path d="M12 12 L8 5" stroke="#78716c" stroke-width="2.2" stroke-linecap="round"/>
  <path d="M20 10 L21 3" stroke="#78716c" stroke-width="2.2" stroke-linecap="round"/>
  <circle cx="42" cy="22" r="6.5" fill="#fafaf9" stroke="#44403c" stroke-width="1.3"/>
  <circle cx="44" cy="20.5" r="1.3" fill="#1c1917"/>
  <path d="M49 24 C51 26 53 28 54 31" stroke="#44403c" stroke-width="1.3" stroke-linecap="round"/>
  <path d="M16 28 C20 32 24 34 28 34" stroke="#e7e5e4" stroke-width="4" stroke-linecap="round"/>
  <path d="M22 30 C26 33 30 34 33 34" stroke="#e7e5e4" stroke-width="3.5" stroke-linecap="round"/>
  <path d="M28 31 C31 33 34 34 36 34" stroke="#e7e5e4" stroke-width="3" stroke-linecap="round"/>
</svg>
