<svg xmlns="http://www.w3.org/2000/svg" viewBox="0 0 64 64" fill="none">
  <ellipse cx="30" cy="55" rx="24" ry="4.5" fill="#000" opacity="0.08"/>
  <path d="M10 46v9M18 46v9M32 46v9M40 46v9" stroke="#78350f" stroke-width="2.4" stroke-linecap="round"/>
  <path d="M8 36 C10 24 18 18 28 18 C34 18 38 20 40 24 C42 20 46 18 50 20 C54 22 56 28 55 34 C54 38 52 40 48 41" fill="#d97706" stroke="#92400e" stroke-width="1.3" stroke-linejoin="round"/>
  <path d="M20 18 C20 10 26 6 34 6 C38 6 42 8 44 12" fill="#fbbf24" stroke="#92400e" stroke-width="1.3" stroke-linejoin="round"/>
  <path d="M34 6 C36 2 40 0 44 2 C47 4 48 8 46 12" fill="#fbbf24" stroke="#92400e" stroke-width="1.3" stroke-linejoin="round"/>
  <circle cx="46" cy="22" r="5" fill="#fbbf24" stroke="#92400e" stroke-width="1.3"/>
  <circle cx="48" cy="20.5" r="1.2" fill="#1c1917"/>
  <path d="M52 23 C54 24 56 26 57 29" stroke="#92400e" stroke-width="1.5" stroke-linecap="round"/>
  <path d="M24 20 C22 14 24 10 28 10" stroke="#92400e" stroke-width="1.2" stroke-linecap="round" opacity="0.45"/>
</svg>
