<svg xmlns="http://www.w3.org/2000/svg" viewBox="0 0 64 64" fill="none">
  <ellipse cx="32" cy="55" rx="24" ry="4.5" fill="#000" opacity="0.08"/>
  <path d="M10 46v9M18 46v9M34 46v9M44 46v9" stroke="#334155" stroke-width="2.4" stroke-linecap="round"/>
  <path d="M6 34 C8 22 16 16 26 16 C32 16 37 18 41 23 C44 19 49 17 54 19 C58 21 60 26 59 32 C58 36 55 39 50 40" fill="#ffffff" stroke="#1e293b" stroke-width="1.3" stroke-linejoin="round"/>
  <ellipse cx="16" cy="28" rx="5" ry="6" fill="#0f172a"/>
  <ellipse cx="28" cy="26" rx="4.5" ry="5.5" fill="#0f172a"/>
  <circle cx="48" cy="24" r="7" fill="#ffffff" stroke="#1e293b" stroke-width="1.3"/>
  <circle cx="50" cy="22" r="1.4" fill="#0f172a"/>
  <ellipse cx="54" cy="27" rx="2.8" ry="2" fill="#fb7185"/>
  <path d="M4 24 C6 21 9 21 12 24" stroke="#1e293b" stroke-width="2" stroke-linecap="round"/>
</svg>
